# xmcd
#
# Track frame offsets: 
#        150
#        15306
#        24879
#        39254
#        51045
#        70915
#        92510
#        104931
#        125029
#        146366
#        166599
#        179468
#        198686
#        211082
#        240491
#        253728
#
# Disc length: 3425 seconds
#
# Revision: 2
# Processed by: cddbd v1.5.2PL0 Copyright (c) Steve Scherf et al.
# Submitted via: ExactAudioCopy v0.99pb4
#
DISCID=d30d5f10
DTITLE=Wildwest - Abenteuer - Kampf um Chippers Ranch (24)
DYEAR=2005
DGENRE=Speech
TTITLE0="Rettet meine Ranch"
TTITLE1=Auf dem Weg zu Mr Paddler
TTITLE2="Da hängt Hector"
TTITLE3=In der Gewalt des Bösen
TTITLE4=Uru-Anguru
TTITLE5=Was wollen die Apachen bloß?
TTITLE6="Ach du bist´s nur!"
TTITLE7=Die Falltür
TTITLE8=Hector ist weg!
TTITLE9=Verfolgung mit dem Lasso
TTITLE10=Keine Zeit für Indianer-Spielchen
TTITLE11=Chipper geht auf
TTITLE12=Die Rache der Rothäute
TTITLE13=Um Billy wird es Finster
TTITLE14=Versteigerung mit Unterbrechung
TTITLE15=Als Verlobte grüßen
EXTD=
EXTT0=
EXTT1=
EXTT2=
EXTT3=
EXTT4=
EXTT5=
EXTT6=
EXTT7=
EXTT8=
EXTT9=
EXTT10=
EXTT11=
EXTT12=
EXTT13=
EXTT14=
EXTT15=
PLAYORDER=
